<svg version="1.1" xmlns="http://www.w3.org/2000/svg" viewBox="-292.7 -1578.5125 7167.9095040684015 2388.525"><desc>Created with Snap</desc><defs></defs><g><rect x="-292.7" y="-1578.5125" width="7167.9095040684015" height="2388.525" fill="#004e89" style=""></rect><g transform="matrix(20.7149,0,0,20.7149,4987.6507,-1450.2475)"><circle cx="50.587" cy="34.417" r="7.864" fill="#ffffff" style=""></circle><path d="M69.805,17.251C65.25,12.128,58.973,9.085,52.13,8.683c-0.506-0.03-1.02-0.045-1.526-0.045  c-13.559,0-24.803,10.612-25.599,24.16c-0.789,13.433,8.957,25.087,22.062,26.913L44.666,88.25c0,3.332,2.701,6.033,6.033,6.033  s6.033-2.701,6.033-6.033L54.33,59.701c11.859-1.717,21.193-11.595,21.916-23.894C76.647,28.965,74.359,22.374,69.805,17.251z   M51.788,14.487c4.97,0.292,9.554,2.385,13.011,5.919c-3.652-1.344-8.584-2.631-14.098-2.631c-0.022,0-0.043,0-0.065,0  c-5.502,0.01-10.403,1.221-14.031,2.485c3.598-3.593,8.555-5.808,13.998-5.808C50.996,14.452,51.395,14.464,51.788,14.487z   M49.852,46.943c-3.346-0.197-6.415-1.684-8.642-4.189s-3.345-5.727-3.149-9.073c0.389-6.624,5.886-11.812,12.514-11.812  c0.248,0,0.497,0.007,0.748,0.022c6.907,0.406,12.196,6.355,11.791,13.262C62.71,42.025,56.791,47.349,49.852,46.943z M30.808,33.14  c0.206-3.504,1.319-6.751,3.096-9.525c2.923-1.295,8.013-3.148,14.014-3.614c-6.506,1.201-11.565,6.723-11.966,13.556  c-0.23,3.91,1.077,7.675,3.679,10.601c1.496,1.682,3.317,2.969,5.337,3.805c-5.293-0.811-9.789-2.388-10.961-2.82  C31.757,41.705,30.549,37.546,30.808,33.14z M50.646,54.155c-0.393,0-0.791-0.012-1.185-0.035c-5.12-0.301-9.678-2.527-13.011-5.933  c3.442,1.039,8.949,2.38,14.462,2.38c0.605,0,1.211-0.016,1.813-0.051c5.082-0.291,9.382-1.495,12.301-2.561  C61.401,51.78,56.284,54.155,50.646,54.155z M70.442,35.467c-0.195,3.327-1.208,6.424-2.831,9.104  c-1.397,0.683-5.799,2.65-11.678,3.499c5.175-2.032,8.946-6.93,9.29-12.793c0.44-7.495-4.86-14.021-12.081-15.294  c6.127,0.447,11.366,2.457,14.345,3.849C69.645,27.288,70.686,31.316,70.442,35.467z" fill="#ffffff" style=""></path><desc>Created with Snap</desc><defs></defs></g><g><g transform="matrix(0.5,0,0,-0.5,0,0)"><path d="M409 848L409 641Q409 323 416 249Q424 176 431 144Q438 112 452 87Q474 46 536 0L29 0Q108 49 132 85Q178 153 178 261Q177 527 177 743L177 1268Q177 1417 130 1484Q112 1508 87 1530L839 1530Q907 1506 932 1362Q939 1322 939 1284Q939 1206 916 1160L862 1268Q808 1374 707 1410Q651 1430 581 1430Q511 1430 481 1425Q451 1421 435 1404Q409 1375 409 1293Q409 1212 413 1180Q417 1149 432 1129Q463 1090 563 1090L877 1090Q854 1032 830 1008Q782 960 700 960Q668 960 639 967Q585 980 544 980Q503 980 476 972Q450 965 435 949Q409 921 409 848ZM1383 1279Q1363 1246 1334 1223Q1305 1201 1268 1201Q1231 1201 1202 1223Q1173 1246 1153 1279Q1112 1347 1112 1423Q1112 1515 1196 1546Q1226 1557 1269 1557Q1388 1557 1417 1473Q1426 1449 1426 1419Q1426 1390 1415 1351Q1404 1312 1383 1279ZM1407 0L1112 0Q1158 158 1158 543Q1158 814 1110 916Q1098 942 1083 964L1050 1010L1405 1010Q1361 845 1361 501Q1361 158 1407 0ZM1940 720L1939 458Q1939 134 1978 0L1683 0Q1711 97 1718 229Q1733 548 1733 724Q1733 900 1732 960Q1731 1021 1730 1082Q1724 1299 1709 1355Q1695 1412 1682 1437Q1670 1463 1654 1484L1621 1530L1986 1530Q1958 1429 1953 1336Q1949 1244 1946 1173Q1944 1102 1942 1025Q1940 897 1940 720ZM2546 0L2259 0Q2305 158 2305 543Q2305 817 2257 917Q2245 942 2230 964L2197 1010L2544 1010Q2529 951 2524 916L2517 856Q2633 1030 2812 1030Q2992 1030 3045 835Q3124 970 3254 1014Q3300 1030 3357 1030Q3415 1030 3461 1005Q3508 981 3540 936Q3603 845 3603 687L3603 580Q3603 274 3611 196Q3620 119 3624 94Q3630 50 3644 0L3349 0Q3393 151 3393 543Q3393 702 3377 756Q3361 811 3335 835Q3310 860 3266 860Q3137 860 3061 708L3061 580Q3061 274 3069 196Q3078 119 3082 94Q3088 50 3102 0L2807 0Q2852 154 2852 543Q2852 706 2836 758Q2820 811 2795 835Q2770 860 2726 860Q2683 860 2648 843Q2613 826 2585 798Q2532 746 2502 664Q2500 635 2500 604L2500 543Q2500 158 2546 0ZM3024 602L3028 620L3024 602ZM4515 1069Q4542 1009 4542 948Q4542 887 4536 847Q4531 807 4520 770Q4495 686 4449 641Q4418 796 4381 842Q4345 888 4308 904Q4272 920 4231 920Q4190 920 4164 912Q4138 904 4119 889Q4076 856 4076 814Q4076 772 4097 741Q4118 711 4152 684Q4187 658 4231 633L4321 582Q4437 517 4480 474Q4565 389 4565 295Q4565 172 4481 88Q4375 -20 4163 -20Q3970 -20 3873 70Q3845 96 3833 122Q3841 197 3900 263Q3957 327 4011 337Q4007 324 4007 298Q4007 272 4022 233Q4037 195 4065 162Q4128 86 4207 86Q4286 86 4323 122Q4360 158 4360 204Q4360 250 4339 281Q4318 312 4283 339Q4249 366 4205 391L4115 442Q4000 510 3957 558Q3871 654 3871 767Q3871 886 3971 960Q4066 1030 4208 1030L4384 1018Q4448 1018 4473 1033Q4498 1049 4515 1069ZM5217 614L5030 1183Q5026 1037 5026 881Q5026 668 5033 422Q5040 176 5043 142Q5047 109 5053 84Q5064 38 5089 0L4810 0Q4848 54 4855 116Q4863 178 4867 236Q4875 354 4875 553Q4875 794 4867 993L4856 1268Q4850 1420 4807 1484Q4791 1508 4766 1530L5157 1530Q5196 1359 5254 1167L5436 586L5715 1530L6105 1530Q6056 1487 6041 1442Q6019 1373 6016 1282L6009 1105Q5996 794 5996 553Q5996 149 6033 40Q6040 20 6051 0L5736 0Q5763 53 5766 114Q5770 176 5773 284Q5785 639 5785 801Q5785 1068 5780 1198L5412 0L5217 614ZM6978 340Q7014 316 7014 256Q7014 197 6998 152Q6982 107 6942 68Q6852 -20 6668 -20Q6454 -20 6342 138Q6243 279 6243 519Q6243 761 6377 899Q6504 1030 6721 1030Q6872 1030 6957 942Q7024 872 7024 780Q7024 689 6988 615Q6953 542 6884 489Q6742 379 6487 373Q6508 172 6613 104Q6651 80 6714 80Q6777 80 6848 146Q6919 212 6978 340ZM6481 499L6481 468Q6797 489 6797 774Q6797 881 6733 918Q6711 930 6675 930Q6639 930 6602 908Q6566 886 6539 836Q6481 727 6481 499ZM7825 0L7811 79Q7702 -20 7534 -20Q7380 -20 7291 69Q7199 161 7199 328Q7199 496 7248 621Q7297 747 7377 832Q7535 1000 7765 1009Q7757 1317 7744 1362Q7732 1408 7719 1434Q7707 1461 7691 1483L7657 1530L8022 1530Q7994 1429 7989 1334Q7985 1239 7983 1167Q7981 1095 7980 1016Q7977 884 7977 753Q7977 623 7977 556Q7978 489 7980 429Q7985 204 7997 161Q8009 119 8021 93Q8034 68 8050 46L8084 0L7825 0ZM7766 367Q7771 521 7771 655Q7771 790 7768 912Q7623 890 7536 741Q7449 593 7449 368Q7449 235 7469 182Q7490 129 7518 104Q7547 80 7587 80Q7628 80 7658 96Q7689 113 7712 145Q7762 213 7766 367ZM8566 1279Q8546 1246 8517 1223Q8488 1201 8451 1201Q8414 1201 8385 1223Q8356 1246 8336 1279Q8295 1347 8295 1423Q8295 1515 8379 1546Q8409 1557 8452 1557Q8571 1557 8600 1473Q8609 1449 8609 1419Q8609 1390 8598 1351Q8587 1312 8566 1279ZM8590 0L8295 0Q8341 158 8341 543Q8341 814 8293 916Q8281 942 8266 964L8233 1010L8588 1010Q8544 845 8544 501Q8544 158 8590 0ZM9496 1070Q9521 1010 9521 938Q9521 867 9516 820Q9511 773 9501 729Q9480 636 9436 580Q9392 852 9293 910Q9258 930 9217 930Q9177 930 9147 911Q9117 892 9096 856Q9053 784 9053 669Q9053 555 9076 472Q9099 390 9136 324Q9174 259 9221 211Q9269 164 9317 132Q9414 70 9489 70Q9485 44 9463 19Q9441 -6 9415 -20Q9309 -20 9172 52Q8917 187 8828 446Q8795 541 8795 640Q8795 740 8818 808Q8841 877 8885 926Q8975 1030 9135 1030Q9189 1030 9240 1023Q9336 1010 9374 1010Q9413 1010 9443 1020Q9473 1031 9496 1070ZM10345 1069Q10372 1009 10372 948Q10372 887 10366 847Q10361 807 10350 770Q10325 686 10279 641Q10248 796 10211 842Q10175 888 10138 904Q10102 920 10061 920Q10020 920 9994 912Q9968 904 9949 889Q9906 856 9906 814Q9906 772 9927 741Q9948 711 9982 684Q10017 658 10061 633L10151 582Q10267 517 10310 474Q10395 389 10395 295Q10395 172 10311 88Q10205 -20 9993 -20Q9800 -20 9703 70Q9675 96 9663 122Q9671 197 9730 263Q9787 327 9841 337Q9837 324 9837 298Q9837 272 9852 233Q9867 195 9895 162Q9958 86 10037 86Q10116 86 10153 122Q10190 158 10190 204Q10190 250 10169 281Q10148 312 10113 339Q10079 366 10035 391L9945 442Q9830 510 9787 558Q9701 654 9701 767Q9701 886 9801 960Q9896 1030 10038 1030L10214 1018Q10278 1018 10303 1033Q10328 1049 10345 1069Z" fill="#ffffff" style=""></path></g></g></g></svg>